<?xml version="1.0" encoding="utf-8"?>
<!-- Generator: Adobe Illustrator 27.5.0, SVG Export Plug-In . SVG Version: 6.00 Build 0)  -->
<svg version="1.1" id="Layer_1" xmlns="http://www.w3.org/2000/svg" xmlns:xlink="http://www.w3.org/1999/xlink" x="0px" y="0px"
	 viewBox="0 0 4000 4000" style="enable-background:new 0 0 4000 4000;" xml:space="preserve">
<g>
	<g>
		<rect style="fill:#73EBFF;" width="4000" height="4000"/>
	</g>
	<g>
		<g>
			<g>
				<g>
					<path style="fill:#0096F0;" d="M3099.461,1805.704c-4.666-61.969-10.99-107.89-21.151-142.255
						c-4.971-16.877-10.859-30.919-17.924-42.738c-21.412-35.891-53.596-50.892-103.442-59.614
						c70.124-99.3,163.798-182.899,278.797-252.239c12.603-7.632,29.088-2.486,35.106,10.946
						c6.236,13.999,9.114,27.954,8.504,41.865c-0.436,11.993-3.489,23.985-9.289,35.934c-0.349,0.828-0.785,1.701-1.221,2.529
						c0.393-0.131,0.742-0.218,1.134-0.349c2.791-0.785,5.538-1.308,8.286-1.483c17.88-1.308,33.536,10.117,42.999,30.221
						c10.51,22.198,13.476,54.992,3.576,92.802v0.044c-1.047,4.099-2.268,8.286-3.663,12.516c2.878,4.928,5.321,9.943,7.283,15.045
						C3370.583,1658.739,3199.371,1795.412,3099.461,1805.704z"/>
				</g>
				<g style="opacity:0.6;">
					<g>
						<path style="fill:#FFFFFF;" d="M3264.118,1332.116c3.232-1.957,6.719-3.061,10.219-3.414c-1.021-2.965-2.168-5.931-3.49-8.899
							c-6.018-13.432-22.503-18.578-35.106-10.946c-114.999,69.34-208.673,152.939-278.797,252.239
							c14.23,2.49,26.975,5.521,38.486,9.375C3064.362,1477.251,3154.532,1398.192,3264.118,1332.116z"/>
					</g>
				</g>
				<g>
					<path style="fill:#000072;" d="M3099.458,1823.127c-4.072,0-8.04-1.426-11.191-4.063c-3.613-3.022-5.85-7.378-6.204-12.075
						c-13.652-181.655-41.035-213.511-128.125-228.696c-5.891-1.028-10.844-5-13.127-10.527c-2.283-5.527-1.575-11.838,1.875-16.721
						c70.083-99.221,165.647-185.732,284.038-257.131c10.305-6.218,22.813-7.71,34.314-4.102
						c11.467,3.604,20.847,11.951,25.733,22.905c10.425,23.389,12.849,46.716,7.285,69.644c10.039,2.498,19.439,7.913,27.495,16.06
						c27.229,27.539,34.217,79.387,18.44,133.611c18.357,36.597,16.372,78.835-5.889,122.695
						c-45.552,89.746-159.277,160.732-232.856,168.308C3100.649,1823.097,3100.051,1823.127,3099.458,1823.127z M2986.879,1549.753
						c85.652,22.8,114.861,78.711,128.428,235.474c63.342-15.271,152.424-76.819,187.683-146.292
						c18.308-36.069,19.353-68.452,3.108-96.25c-2.517-4.309-3.069-9.49-1.516-14.231c16.497-50.359,7.5-89.99-7.839-105.503
						c-6.753-6.831-14.175-8.85-22.671-6.165c-6.716,2.104-14.041-0.017-18.577-5.388c-4.539-5.378-5.4-12.959-2.185-19.219
						c11.052-21.523,11.575-42.869,1.594-65.256c-1.113-2.497-3.186-3.469-4.321-3.826c-1.152-0.361-3.442-0.757-5.842,0.688
						C3139.15,1387.468,3052.521,1463.4,2986.879,1549.753z"/>
				</g>
				<g>
					<path style="fill:#000072;" d="M3285.76,1404.336c-11.229,39.235-37.345,70.34-66.169,96.853
						c-28.092,25.536-58.712,46.799-89.813,66.752c-5.245,3.365-12.224,1.841-15.589-3.403c-3.269-5.09-1.919-11.827,2.953-15.284
						c29.31-21.195,57.774-43.547,82.49-68.721c23.352-23.959,45.062-52.443,52.295-84.733
						C3257.833,1372.898,3291.417,1381.267,3285.76,1404.336L3285.76,1404.336z"/>
				</g>
				<g>
					<path style="fill:#000072;" d="M3335.4,1543.958c-40.141,53.064-95.983,93.141-156.84,118.211
						c-5.105,2.143-10.98-0.258-13.123-5.362c-2.046-4.872,0.052-10.45,4.681-12.806c27.788-14.294,53.909-31.301,77.04-51.451
						c23.162-20.104,43.224-43.317,59.759-68.738C3320.638,1504.24,3349.315,1524.391,3335.4,1543.958L3335.4,1543.958z"/>
				</g>
				<g style="opacity:0.3;">
					<g>
						<path style="fill:#000072;" d="M3279.351,1361.67c-0.436,11.993-3.489,23.985-9.289,35.935L3279.351,1361.67z"/>
					</g>
				</g>
				<g style="opacity:0.3;">
					<g>
						<path style="fill:#000072;" d="M3328.456,1548.93c-0.567,100.826-142.168,212.205-230.303,223.412
							c-6.105-61.839-13.519-107.585-24.509-141.732c12.516-1.788,95.244-16.092,121.759-81.55
							c4.186-10.379,8.329-25.337,7.893-44.787c9.289-5.102,45.659-26.515,60.617-71.738c3.881-11.731,5.582-22.852,6.062-32.751
							c2.791-0.785,5.538-1.308,8.286-1.483c17.88-1.308,33.536,10.117,42.999,30.221c1.745,19.537-0.436,42.214-7.85,66.81
							c5.19,8.46,8.984,17.139,11.426,25.992v0.044C3327.322,1530.396,3328.499,1539.641,3328.456,1548.93z"/>
					</g>
				</g>
			</g>
			<g>
				<g>
					<path style="fill:#50468F;" d="M1399.324,2874.565c-5.787,8.247-4.392,19.611,3.069,26.399l45.924,41.904
						c20.708,18.881,27.173,49.571,13.99,74.265c-5.568,10.477-13.587,18.099-23.21,22.901c-6.593,3.3-13.964,5.228-21.865,5.842
						c-23.983,1.867-47.267-9.645-61.284-29.181c-13.31-18.48-30.707-36.8-52.153-55.005c-5.263-4.47-11.389-7.891-17.983-9.94
						c-134.444-41.676-260.549-64.306-340.005-109.881c-7.159-4.124-13.751-9.429-18.48-16.244
						c-16.339-23.531-9.846-54.124,15.138-68.353c5.143-2.917,11.037-5.143,17.701-6.479c6.501-1.361,13.694-1.824,21.593-1.231
						c-3.881-8.426-5.971-16.625-6.453-24.419c-1.865-28.889,17.968-51.782,45.205-57.787c19.206-4.254,39.328,1.254,54.833,13.407
						l170.836,134.053c10.715,8.4,24.253,12.381,37.795,11.055l3.505-0.344c10.634-1.042,20.559-6.035,27.747-13.937l42.1-46.385
						l21.778-23.968l0.216-0.262l13.757-15.14c22.795,16.786,56.341,31.675,99.858,44.904c0.163,0.024,0.37,0.084,0.537,0.148
						c-1.991,1.844-3.946,3.644-5.897,5.483C1453.175,2808.573,1422.754,2841.188,1399.324,2874.565z"/>
				</g>
				<g style="opacity:0.6;">
					<g>
						<path style="fill:#FFFFFF;" d="M1011.961,2693.46c20.437-4.485,41.831,1.246,58.304,13.938l181.492,140.002
							c11.383,8.772,25.777,12.916,40.184,11.505l3.729-0.365c11.313-1.108,21.879-6.351,29.538-14.632l44.861-48.615l23.206-25.12
							l0.23-0.275c5.889-7.392,11.778-14.783,17.667-22.175c10.064,5.647,21.117,11.345,33.149,16.858
							c13.738,6.293,26.847,11.47,39.057,15.748c1.39-1.316,2.79-2.635,4.199-3.955c1.97-1.846,3.936-3.674,5.897-5.483
							c-0.167-0.064-0.374-0.124-0.537-0.148c-43.517-13.228-77.063-28.117-99.858-44.904l-13.757,15.14l-0.216,0.262
							l-21.778,23.968l-42.1,46.385c-7.188,7.902-17.113,12.895-27.747,13.937l-3.505,0.344
							c-13.542,1.326-27.08-2.655-37.795-11.055l-170.836-134.053c-15.506-12.153-35.627-17.661-54.833-13.407
							c-24.223,5.341-42.547,24.053-45.004,48.446C984.191,2704.711,997.015,2696.725,1011.961,2693.46z"/>
					</g>
				</g>
				<g>
					<path style="fill:#000072;" d="M1412.212,3062.084c-26.938,0-53.042-13.442-69.28-36.045
						c-12.395-17.256-29.04-34.79-49.473-52.124c-3.696-3.135-7.979-5.513-12.385-6.88c-42.861-13.281-84.626-24.556-125.017-35.454
						c-87.17-23.525-162.451-43.838-218.198-75.83c-10.041-5.757-18.013-12.817-23.684-20.991
						c-14.331-20.63-15.764-46.523-3.74-67.568c10.088-17.656,27.983-29.136,49.902-32.69c-2.678-15.396-0.671-30.542,6.038-44.092
						c9.7-19.59,28.167-33.682,50.664-38.667c23.43-5.171,48.289,0.801,68.198,16.431l170.837,134.063
						c7.5,5.889,16.846,8.652,26.36,7.69l3.477-0.342c6.721-0.659,12.92-3.774,17.461-8.774l77.842-85.728
						c5.513-6.069,14.727-7.002,21.331-2.134c21.042,15.464,53.196,29.81,95.564,42.627c5.496,1.665,9.68,6.143,10.964,11.743
						c1.287,5.596-0.525,11.45-4.749,15.347c-39.941,36.841-70,69.912-91.892,101.094c-1.133,1.611-0.808,3.975,0.735,5.381
						l45.952,41.914c26.646,24.297,33.76,62.803,17.302,93.633c-11.726,21.968-32.312,35.166-57.961,37.153
						C1416.374,3062.006,1414.289,3062.084,1412.212,3062.084z M975.114,2765.331c-17.083,0-30.354,6.318-36.882,17.739
						c-5.84,10.225-4.983,23.032,2.239,33.433c2.944,4.238,7.422,8.101,13.315,11.479c52.158,29.927,125.589,49.746,210.61,72.69
						c40.674,10.977,82.729,22.324,126.152,35.786c8.613,2.666,16.56,7.056,23.618,13.042c22.424,19.019,40.85,38.486,54.766,57.856
						c11.006,15.317,29.038,23.926,47.046,22.568c14.783-1.152,25.618-7.983,32.2-20.317c9.556-17.9,5.183-40.479-10.632-54.902
						l-45.95-41.909c-13.445-12.251-15.752-32.646-5.366-47.437c19.402-27.637,44.609-56.445,76.667-87.578
						c-27.19-9.536-49.443-19.756-67.302-30.913l-68.523,75.464c-9.888,10.889-23.398,17.681-38.037,19.116l-3.484,0.342
						c-17.749,1.724-35.232-3.374-49.246-14.37l-170.835-134.063c-12.344-9.692-27.478-13.472-41.511-10.356
						c-12.986,2.876-23.518,10.752-28.894,21.611c-5.564,11.24-5.137,24.463,1.238,38.237c2.38,5.151,1.86,11.177-1.372,15.84
						s-8.657,7.246-14.348,6.846C978.723,2765.4,976.897,2765.331,975.114,2765.331z"/>
				</g>
				<g>
					<path style="fill:#000072;" d="M993.253,2738.418c20.237,22.473,46.587,41.268,72.381,57.918
						c26.766,17.096,54.991,32.284,83.916,46.107c7.603,3.664,2.856,15.259-5.182,12.44c-61.706-23.41-123.732-49.808-174.075-94.15
						C954.453,2745.129,978.032,2722.096,993.253,2738.418L993.253,2738.418z"/>
				</g>
				<g style="opacity:0.4;">
					<g>
						<path style="fill:#000072;" d="M1399.324,2874.565c-5.787,8.247-4.392,19.611,3.069,26.399l45.924,41.904
							c20.708,18.881,27.173,49.571,13.99,74.265c-5.568,10.477-13.587,18.099-23.21,22.901
							c-23.412,1.127-46.009-11.175-59.826-31.535c-13.431-19.714-30.952-39.309-52.524-58.789
							c-5.294-4.789-11.443-8.449-18.053-10.656c-134.784-45.142-261.103-69.962-340.887-118.883
							c-7.19-4.443-13.817-10.106-18.593-17.399c-9.404-14.318-11.402-31.011-6.749-45.5c5.143-2.917,11.037-5.143,17.701-6.479
							c6.501-1.361,13.694-1.824,21.593-1.231c-3.881-8.426-5.971-16.625-6.453-24.419c2.028-0.641,4.104-1.206,6.311-1.664
							c19.887,5.571,39.155,19.607,56.507,32.544c64.014,47.611,133.865,86.246,207.136,114.654
							c20.483,7.965,42.183,15.209,63.656,11.939c20.522-3.136,38.836-15.667,53.176-31.426
							c14.383-15.724,25.284-34.564,36.081-53.234c5.706-9.888,11.609-20.639,10.912-32.272
							c-0.737-11.629-11.489-23.282-21.87-19.652l-8.11-4.795l0.216-0.262l13.757-15.14c22.795,16.786,56.341,31.675,99.858,44.904
							c-1.788,1.864-3.571,3.768-5.359,5.632C1453.175,2808.573,1422.754,2841.188,1399.324,2874.565z"/>
					</g>
				</g>
			</g>
			<g>
				<g>
					<path style="fill:#DCF5FF;" d="M1279.258,2507.249c-32.7,238.985,284.461,383.306,474.633,200.646
						C1723.27,2536.496,1422.179,2421.575,1279.258,2507.249z"/>
				</g>
				<g style="opacity:0.2;">
					<path style="fill:#000072;" d="M1736.904,2667.218c-177.75,143.268-443.852,30.88-456.014-170.352
						c-43.493,245.144,280.091,396.319,473.002,211.028c-2.424-13.566-6.577-26.768-12.183-39.553
						C1740.888,2666.471,1738.494,2665.937,1736.904,2667.218z"/>
				</g>
				<g>
					<path style="fill:#000072;" d="M1283.932,2507.888c4.728,26.735,5.973,53.305,12.782,79.466
						c6.698,25.264,18.283,48.844,33.307,69.749c76.778,106.545,231.105,140.934,349.189,86.342
						c25.598-10.384,45.812-29.231,71.945-38.876c3.776-1.455,7.703,2.958,5.816,6.533c-6.445,13.512-16.231,24.576-27.703,33.862
						c-10.981,9.233-23.497,17.832-35.863,25.228c-156.329,98.737-393.729,11.973-425.714-176.552
						c-2.153-14.673-3.796-29.426-2.983-44.224c1.132-14.74,4.122-29.207,9.876-42.806
						C1276.509,2502.032,1283.334,2502.984,1283.932,2507.888L1283.932,2507.888z"/>
				</g>
			</g>
			<g>
				<g>
					<path style="fill:#DCF5FF;" d="M2820.359,2503.111c-185.996,206.536-447.785,344.473-731.902,307.143
						c-54.861-7.196-109.809-14.173-164.932-19.101c-415.165-36.938-754.841-212.816-978.951-601.684
						c-39.074-5.015-66.243-42.825-76.23-127.907c-64.542,29.088-59.963-58.655-46.968-170.078
						c-47.229,30.265-49.279-23.724-20.497-135.19c-51.329,46.662-56.605-60.618,4.972-231.088
						c11.12-30.788,18.796-62.711,22.895-95.156c0.305-2.442,0.611-4.884,0.959-7.283
						c70.997-518.127,687.071-771.107,1109.606-504.041c83.338,52.724,150.89,126.381,199.558,211.725
						c46.357,81.201,93.935,146.529,146.136,199.384c130.131,131.745,288.958,186.127,528.855,216.435
						c44.787,5.669,92.365,10.51,143.083,14.827c53.858,4.623,99.299,41.211,115.784,92.235
						C3156.459,1913.376,3042.245,2256.934,2820.359,2503.111z"/>
				</g>
				<g style="opacity:0.2;">
					<g>
						<path style="fill:#000072;" d="M3036.094,1653.332c-16.223-51.023-60.944-87.612-113.949-92.235
							c-49.914-4.317-96.739-9.158-140.816-14.827c-27.769,25.642-50.258,59.135-68.37,92.714
							c-32.79,60.705-58.584,127.602-108.412,174.832c-57.125,54.076-136.868,74.093-212.877,92.104
							c-58.284,13.824-116.61,27.648-174.894,41.473c12.318,10.815,25.494,20.584,39.314,29.306l-20-7.239
							c7.039,2.616,14.077,5.277,21.116,7.893c38.112,23.811,81.245,39.38,125.623,45.049l-20.129-7.283
							c66.266,22.154,133.52,40.47,202.662,48.843c113.52,13.781,234.292-1.526,329.615-65.676
							c11.674-7.85,28.584-15.918,37.897-5.321c6.352,7.196,3.777,19.232-2.919,26.079c-6.695,6.847-16.223,9.812-25.365,12.516
							c25.193,0,47.039,26.384,42.704,51.59c-2.72,15.977-15.528,28.782-30.575,33.808c-14.502,4.844-24.255,18.478-23.796,33.982
							c1.873,63.256-16.472,126.82-45.587,183.14c-30.716,59.382-72.815,111.723-117.588,161.146
							c-173.31,154.815-394.2,248.799-630.856,217.196c-44.95-5.991-89.966-11.755-135.084-16.387
							c-7.713-21.45-13.749-43.504-17.942-65.911c-61.502,32.315-133.408,43.876-202.1,33.907
							c-19.588-4.289-38.965-8.972-58.127-14.059c-3.395-1.159-6.806-2.268-10.161-3.543l-1.241,0.463
							c-289.965-79.775-529.83-253.286-701.101-555.254c-38.455-5.015-65.194-42.824-75.022-127.907
							c-63.519,29.088-59.013-58.655-46.223-170.078c-46.481,30.265-48.498-23.724-20.172-135.19
							c-50.515,46.662-55.708-60.618,4.893-231.088c10.944-30.788,18.498-62.711,22.532-95.156c0.301-2.442,0.601-4.884,0.944-7.283
							c3.26-24.176,7.693-47.771,13.215-70.767c-21.289,52.412-36.612,108.708-44.689,168.599c-0.343,2.399-0.644,4.841-0.944,7.283
							c-4.034,32.446-11.588,64.368-22.532,95.156c-60.601,170.47-55.408,277.75-4.893,231.088
							c-28.326,111.467-26.309,165.455,20.172,135.19c-12.79,111.423-17.296,199.166,46.223,170.078
							c9.829,85.083,36.567,122.892,75.022,127.907c220.559,388.868,554.852,564.746,963.437,601.684
							c54.249,4.928,108.326,11.905,162.318,19.101c289.375,38.643,555.145-110.502,739.201-329.02
							c0.813-0.965,1.623-1.93,2.433-2.897c2.864-3.424,5.717-6.855,8.541-10.312c0.541-0.663,1.068-1.339,1.629-1.983
							c4.215-4.841,8.32-9.765,12.075-14.983c2.009-2.792,4.164-5.464,6.261-8.181c2.424-3.142,4.826-6.297,7.218-9.463
							c1.261-1.669,2.513-3.344,3.765-5.02c2.313-3.097,4.627-6.193,6.908-9.312c0.114-0.156,0.224-0.314,0.341-0.469
							c1.703-2.256,3.711-4.576,5.281-6.93c4.513-6.77,9.247-13.373,13.851-20.062c1.9-2.761,3.789-5.527,5.664-8.303
							c1.7-2.516,3.38-5.042,5.059-7.57c2.323-3.498,4.633-7.002,6.916-10.522c2.324-3.58,4.637-7.167,6.919-10.769
							c1.542-2.436,3.063-4.882,4.586-7.327c1.816-2.915,3.62-5.835,5.409-8.762c1.437-2.352,2.874-4.702,4.293-7.063
							c2.47-4.107,4.909-8.228,7.325-12.36c1.308-2.237,2.603-4.479,3.895-6.723c2.266-3.936,4.512-7.88,6.729-11.836
							c1.161-2.074,2.31-4.152,3.458-6.231c2.029-3.675,4.034-7.359,6.02-11.051c0.963-1.791,1.937-3.579,2.89-5.374
							c2.803-5.277,5.564-10.569,8.278-15.877c0.712-1.392,1.404-2.79,2.109-4.185c2.151-4.251,4.275-8.51,6.368-12.779
							c0.848-1.731,1.694-3.462,2.533-5.196c2.283-4.716,4.531-9.44,6.743-14.176c0.407-0.872,0.826-1.74,1.23-2.613
							c2.616-5.642,5.173-11.298,7.687-16.966c0.536-1.208,1.06-2.417,1.59-3.626c2.063-4.709,4.104-9.429,6.105-14.166
							c0.568-1.343,1.14-2.686,1.702-4.03c4.856-11.618,9.491-23.278,13.905-34.97c0.964-2.555,1.897-5.112,2.887-7.669
							c1.429-3.694,2.7-7.452,4.024-11.186c0.295-0.834,0.601-1.667,0.895-2.501c2.141-6.064,4.224-12.134,6.242-18.209
							c0.111-0.335,0.217-0.671,0.328-1.006c1.856-5.608,3.651-11.219,5.402-16.834c0.322-1.034,0.644-2.068,0.962-3.102
							c3.728-12.094,7.217-24.2,10.446-36.308c0.057-0.216,0.122-0.432,0.179-0.648c-0.01,0.025-0.02,0.051-0.029,0.076
							C3070.591,1913.019,3074.382,1774.16,3036.094,1653.332z"/>
					</g>
				</g>
				<g>
					<path style="fill:#0096F0;" d="M3046.693,1793.493c-8.068,8.286-14.697,17.88-19.799,28.259
						c-122.848,249.971-578.221,271.601-845.418,96.465c-4.187-2.704-8.33-5.495-12.385-8.373c-2.311-1.526-4.579-3.14-6.847-4.841
						c-5.713-4.056-11.295-8.199-16.79-12.516c-6.803-5.233-13.476-10.684-19.93-16.266
						c-116.961-118.183-139.856-247.747-65.415-389.13c86.522-51.328,157.518-111.859,190.182-195.066l140.336,124.113
						c4.274,5.451,8.591,10.902,12.908,16.354c67.377,38.028,127.035,60.312,170.427,73.788
						c38.333,11.862,87.088,20.497,184.644,37.766c43.828,7.763,82.161,13.694,131.832,13.607
						c32.576-0.087,28.957-0.349,44.918-1.003c36.458-1.396,69.776,7.719,94.677,24.945c18.491,12.778,32.315,29.96,39.336,50.674
						c2.006,5.626,3.402,11.513,4.273,17.662c0.872,6.105,2.704,11.993,5.146,17.662
						C3095.536,1706.361,3079.967,1759.39,3046.693,1793.493z"/>
				</g>
				<g style="opacity:0.6;">
					<path style="fill:#FFFFFF;" d="M2238.664,1336.938L2379,1471.49c0.043,0.059,0.085,0.118,0.128,0.177
						c8.542,11.808,19.463,21.741,32.084,29.029c59.448,34.327,111.924,55.319,151.123,68.516
						c38.333,12.86,87.089,22.22,184.644,40.942c43.828,8.416,82.161,14.845,131.832,14.751c32.576-0.095,28.957-0.378,44.918-1.088
						c36.458-1.513,69.776,8.368,94.677,27.043c18.491,13.852,32.315,32.479,39.336,54.936c2.006,6.099,3.402,12.481,4.274,19.147
						c0.872,6.619,2.704,13.001,5.146,19.147c5.99,15.035,7.781,32.054,6.171,49.399c13.346-31.182,16.66-66.196,5.458-94.312
						c-2.442-6.146-4.274-12.528-5.146-19.147c-0.872-6.666-2.267-13.049-4.273-19.147c-7.021-22.457-20.845-41.084-39.336-54.936
						c-24.901-18.675-58.219-28.556-94.677-27.043c-15.961,0.709-12.342,0.993-44.918,1.088
						c-49.672,0.094-88.005-6.335-131.832-14.751c-97.555-18.722-146.311-28.083-184.644-40.942
						c-43.392-14.609-103.05-38.767-170.427-79.993c-4.317-5.91-8.635-11.819-12.908-17.729l-140.336-134.552"/>
				</g>
				<g>
					<path style="fill:#0096F0;" d="M2285.006,1329.834c-112.6,144.959-251.105,222.89-426.241,205.969
						c-63.888-63.321-123.154-102.919-171.517-86.217c-84.428,89.269-181.722,114.911-290.005,86.217
						c-221.886,12.56-411.065-25.076-567.537-113.037c70.997-518.127,687.071-771.107,1109.606-504.041
						c83.338,52.724,150.89,126.381,199.558,211.725C2185.227,1211.652,2232.805,1276.979,2285.006,1329.834z"/>
				</g>
				<g style="opacity:0.6;">
					<path style="fill:#FFFFFF;" d="M1917.506,980.768c83.338,52.724,150.89,126.381,199.558,211.725
						c41.534,72.753,84.06,132.73,130.001,182.445c12.96-14.224,25.615-29.237,37.94-45.104
						c-52.201-52.855-99.779-118.182-146.136-199.384c-48.668-85.344-116.22-159.001-199.558-211.725
						c-393.21-248.531-953.938-46.645-1087.105,400.131C1016.488,915.943,1542.989,744.052,1917.506,980.768z"/>
				</g>
				<g>
					<path style="fill:#FF8D06;" d="M1360.087,1581.419c-0.131,0.96-0.262,1.962-0.349,2.965l-5.8,0.611
						C1355.944,1583.73,1357.994,1582.509,1360.087,1581.419z"/>
				</g>
				<g>
					<path style="fill:#FC9B28;" d="M2241.614,1266.644c-81.572,167.02-202.22,249.644-361.909,247.767
						c-31.667-0.372-61.466-15.366-80.512-40.667c-0.13-0.173-0.261-0.347-0.392-0.521c-9.202-12.254-20.584-23.2-33.405-31.617
						c-38.289-25.076-75.532-13.214-110.115,11.818c-14.348,10.423-24.552,23.636-37.33,35.629
						c-17.836,16.79-40.731,26.776-64.411,31.966c-0.25,0.055-0.499,0.109-0.749,0.163c-40.24,8.686-81.74-8.157-106-41.416
						l-47.718-65.417c-67.508,48.494-131.658,61.228-188.917,0c-37.461-22.895-94.546-24.16-123.328,13.388
						c-30.745,24.465-59.309,23.724-82.771-0.829l-57.74,106.757c108.065,74.529,192.188,159.742,238.851,261.527
						c5.887,12.821,24.073,13.039,30.396,0.436c42.579-84.863,89.59-153.668,142.526-200.872
						c20.348-18.145,46.484-28.674,73.729-29.677c0.147-0.005,0.295-0.011,0.442-0.016c27.212-0.959,54.687,0.916,81.637-3.096
						c16.266-2.398,32.664-7.326,46.793-15.612c31.355-7.108,60.443-21.892,82.859-46.052
						c31.748-34.277,74.791-65.938,117.572-29.262c13.17,11.339,20.584,26.253,31.617,39.205
						c10.292,12.106,23.654,20.779,38.188,26.734c6.939,2.843,13.839,5.821,20.287,9.65
						c159.43,94.673,371.046,23.701,479.669-186.358C2296.649,1330.009,2267.169,1298.741,2241.614,1266.644z M1359.738,1584.384
						l-5.8,0.611c2.006-1.265,4.056-2.486,6.149-3.576C1359.956,1582.379,1359.825,1583.381,1359.738,1584.384z"/>
				</g>
				<g>
					<path style="fill:#FF8D06;" d="M1360.087,1581.419c-0.131,0.96-0.262,1.962-0.349,2.965l-5.8,0.611
						C1355.944,1583.73,1357.994,1582.509,1360.087,1581.419z"/>
				</g>
				<g>
					<path style="fill:#000072;" d="M2182.297,2833.866c-31.98,0-64.043-2.104-96.108-6.318l0,0
						c-52.52-6.89-108.46-14.033-164.219-19.023c-217.297-19.331-408.547-76.938-568.428-171.216
						c-169.763-100.103-311.045-245.469-420.02-432.124c-41.729-9.756-67.913-49.556-79.639-121.089
						c-12.537,1.777-23.481-0.674-32.695-7.417c-27.607-20.205-29.473-70.22-20.217-159.407c-7.336,0.3-13.948-1.648-19.788-5.877
						c-15.146-10.969-25.81-34.609-5.083-126.929c-5.454-0.691-9.763-2.788-12.803-4.822
						c-40.361-27.014-11.14-157.139,26.148-260.364c10.657-29.507,18.057-60.264,21.992-91.418c0.347-2.754,0.654-5.193,1.004-7.593
						c17.097-124.78,64.912-238.015,142.1-336.433c71.309-90.925,166.482-165.73,275.229-216.326
						c112.881-52.519,237.378-77.832,359.963-73.359c128.633,4.751,252.737,42.727,358.896,109.827
						c83.081,52.561,154.102,127.886,205.393,217.832c46.042,80.652,92.949,144.688,143.393,195.764
						c153.872,155.786,351.025,199.666,661.013,226.143c60.745,5.212,112.122,46.133,130.899,104.25
						c39.597,122.964,37.68,268.342-5.537,420.434c-41.563,146.265-118.05,288.97-221.189,412.681
						c-98.879,118.599-217.947,213.252-344.326,273.73C2408.366,2807.406,2295.732,2833.866,2182.297,2833.866z M868.344,2044.115
						c2.974,0,5.938,0.762,8.596,2.266c4.839,2.744,8.081,7.627,8.728,13.149c8.286,70.596,28.85,108.491,61.125,112.637
						c5.403,0.693,10.171,3.872,12.893,8.589c207.29,359.688,523.071,553.667,965.383,593.022
						c56.428,5.044,112.776,12.241,165.654,19.18c0.003,0,0.005,0,0.005,0c30.215,3.97,60.52,5.933,90.747,5.938
						c237.034,0.01,471.311-120.64,654.329-340.151c206.226-247.358,294.765-568.879,220.32-800.066
						c-14.443-44.705-53.962-76.191-100.671-80.2c-318.291-27.188-521.389-72.91-682.859-236.387
						c-52.605-53.264-101.301-119.663-148.875-202.993c-48.479-85.012-115.469-156.116-193.735-205.632
						c-201.582-127.412-457.844-140.239-685.496-34.324c-220.896,102.776-365.781,294.495-397.502,525.994
						c-0.335,2.317-0.615,4.543-0.896,6.775c-4.297,34.026-12.302,67.3-23.833,99.221c-48.701,134.827-47.163,202.988-40.41,217.742
						c1.563-0.857,3.979-2.471,7.297-5.488c5.701-5.19,14.138-6.016,20.745-2.029c6.604,3.984,9.807,11.831,7.878,19.297
						c-23.374,90.525-18.801,115.386-16.399,121.396c1.821-0.498,5.217-1.807,10.596-5.254c5.671-3.635,12.935-3.682,18.655-0.105
						c5.718,3.572,8.865,10.117,8.084,16.814c-4.912,42.117-16.416,140.742,3.088,155.019c4.483,3.276,15.049-0.908,19.385-2.866
						C863.462,2044.628,865.905,2044.115,868.344,2044.115z"/>
				</g>
				<g style="opacity:0.3;">
					<g>
						<path style="fill:#000072;" d="M1255.948,1565.901c26.819,46.786,26.783,107.807-0.092,154.561
							c-5.448,9.478-12.401,18.795-22.442,23.119c-9.176,3.952-19.653,3.185-29.517,1.597c-51.1-8.224-98.504-37.409-128.856-79.333
							c85.158,13.702,143.471-20.627,174.466-102.232"/>
					</g>
				</g>
				<g>
					<path style="fill:#000072;" d="M2182.297,2833.866c-31.98,0-64.043-2.104-96.108-6.318l0,0
						c-52.52-6.89-108.46-14.033-164.219-19.023c-217.297-19.331-408.547-76.938-568.428-171.216
						c-169.763-100.103-311.045-245.469-420.02-432.124c-41.729-9.756-67.913-49.556-79.639-121.089
						c-12.537,1.777-23.481-0.674-32.695-7.417c-27.607-20.205-29.473-70.22-20.217-159.407c-7.336,0.3-13.948-1.648-19.788-5.877
						c-15.146-10.969-25.81-34.609-5.083-126.929c-5.454-0.691-9.763-2.788-12.803-4.822
						c-40.361-27.014-11.14-157.139,26.148-260.364c10.657-29.507,18.057-60.264,21.992-91.418c0.347-2.754,0.654-5.193,1.004-7.593
						c17.097-124.78,64.912-238.015,142.1-336.433c71.309-90.925,166.482-165.73,275.229-216.326
						c112.881-52.519,237.378-77.832,359.963-73.359c128.633,4.751,252.737,42.727,358.896,109.827
						c83.081,52.561,154.102,127.886,205.393,217.832c46.042,80.652,92.949,144.688,143.393,195.764
						c153.872,155.786,351.025,199.666,661.013,226.143c60.745,5.212,112.122,46.133,130.899,104.25
						c39.597,122.964,37.68,268.342-5.537,420.434c-41.563,146.265-118.05,288.97-221.189,412.681
						c-98.879,118.599-217.947,213.252-344.326,273.73C2408.366,2807.406,2295.732,2833.866,2182.297,2833.866z M868.344,2044.115
						c2.974,0,5.938,0.762,8.596,2.266c4.839,2.744,8.081,7.627,8.728,13.149c8.286,70.596,28.85,108.491,61.125,112.637
						c5.403,0.693,10.171,3.872,12.893,8.589c207.29,359.688,523.071,553.667,965.383,593.022
						c56.428,5.044,112.776,12.241,165.654,19.18c0.003,0,0.005,0,0.005,0c30.215,3.97,60.52,5.933,90.747,5.938
						c237.034,0.01,471.311-120.64,654.329-340.151c206.226-247.358,294.765-568.879,220.32-800.066
						c-14.443-44.705-53.962-76.191-100.671-80.2c-318.291-27.188-521.389-72.91-682.859-236.387
						c-52.605-53.264-101.301-119.663-148.875-202.993c-48.479-85.012-115.469-156.116-193.735-205.632
						c-201.582-127.412-457.844-140.239-685.496-34.324c-220.896,102.776-365.781,294.495-397.502,525.994
						c-0.335,2.317-0.615,4.543-0.896,6.775c-4.297,34.026-12.302,67.3-23.833,99.221c-48.701,134.827-47.163,202.988-40.41,217.742
						c1.563-0.857,3.979-2.471,7.297-5.488c5.701-5.19,14.138-6.016,20.745-2.029c6.604,3.984,9.807,11.831,7.878,19.297
						c-23.374,90.525-18.801,115.386-16.399,121.396c1.821-0.498,5.217-1.807,10.596-5.254c5.671-3.635,12.935-3.682,18.655-0.105
						c5.718,3.572,8.865,10.117,8.084,16.814c-4.912,42.117-16.416,140.742,3.088,155.019c4.483,3.276,15.049-0.908,19.385-2.866
						C863.462,2044.628,865.905,2044.115,868.344,2044.115z"/>
				</g>
				<g>
					<ellipse style="fill:#000072;" cx="1480.162" cy="1400.567" rx="119.988" ry="146.4"/>
				</g>
				<g>
					<path style="fill:#FEDA24;" d="M1179.639,1489.77c89.353,33.976,92.653,122.545,56.426,179.377
						c-7.628,11.967-21.73,19.207-36.87,19.779c-59.194,2.238-110.704-6.074-145.526-37.296
						c-6.693-63.829,22.408-123.314,80.629-157.801C1147.796,1485.834,1164.788,1484.124,1179.639,1489.77z"/>
				</g>
				<g>
					<path style="fill:#FEDA24;" d="M1236.061,1669.162c-7.632,11.949-21.718,19.188-36.85,19.755
						c-41.124,1.57-78.541-1.963-109.243-14.74c-13.475-5.626-25.643-12.996-36.283-22.546
						c-6.716-63.845,22.372-123.328,80.635-157.78c10.641-6.323,23.505-8.722,35.76-6.672c3.271,0.523,6.454,1.396,9.551,2.573
						C1268.986,1523.767,1272.3,1612.295,1236.061,1669.162z"/>
				</g>
				<g style="opacity:0.3;">
					<path style="fill:#000072;" d="M1217.265,1662.708c-7.588,11.949-21.718,19.188-36.85,19.755
						c-33.056,1.265-63.758-0.785-90.447-8.286c-13.475-5.626-25.643-12.996-36.283-22.546
						c-6.716-63.845,22.372-123.328,80.635-157.78c10.641-6.323,23.505-8.722,35.76-6.672
						C1250.408,1523.593,1252.196,1607.89,1217.265,1662.708z"/>
				</g>
				<g>
					<path style="fill:#000072;" d="M1181.657,1702.353c-61.982,0-105.713-13.179-136.721-40.981
						c-2.417-2.166-3.94-5.151-4.28-8.377c-7.349-70.1,25.166-133.809,86.975-170.422c17.104-10.139,38.286-12.019,56.658-5.032l0,0
						c51.15,19.451,71.829,53.533,80.166,78.696c12.656,38.198,6.167,83.037-17.358,119.944
						c-9.824,15.415-27.546,25.068-47.405,25.82C1193.518,1702.233,1187.505,1702.353,1181.657,1702.353z M1066.228,1645.158
						c28.555,23.254,70.842,33.013,132.476,30.696c11.106-0.42,21.196-5.686,26.328-13.738
						c19.053-29.888,24.641-67.302,14.585-97.649c-9.397-28.362-31.748-49.963-64.629-62.468l0,0
						c-10.986-4.18-23.704-3.025-34.021,3.086C1089.707,1535.448,1062.038,1587.529,1066.228,1645.158z"/>
				</g>
				<g>
					<path style="fill:#FEDA24;" d="M1053.67,1651.631c77.553,37.638,148.783-13.083,192.875-104.663
						c-39.939-54.583-81.312-77.555-125.218-44.672C1076.779,1538.403,1046.943,1583.656,1053.67,1651.631z"/>
				</g>
				<g style="opacity:0.3;">
					<path style="fill:#000072;" d="M1149.584,1488.533c17.178,3.8,34.002,15.106,50.551,32.277
						c12.553,13.025,14.746,32.991,5.203,48.359c-38.519,62.029-92.495,96.759-151.702,81.775c-0.125,0.342-0.083,0.227-0.207,0.569
						c77.647,37.86,148.978-12.871,193.116-104.546C1215.279,1504.238,1183.134,1480.888,1149.584,1488.533z"/>
				</g>
				<g>
					<path style="fill:#000072;" d="M1105.146,1675.112c-18.66,0-37.461-4.56-56.238-13.674c-3.411-1.653-5.715-4.961-6.089-8.733
						c-6.299-63.669,16.465-114.155,71.641-158.879c18.953-14.204,38.289-19.812,57.791-16.89
						c27.617,4.124,54.797,24.924,83.093,63.594c2.375,3.247,2.771,7.542,1.025,11.167
						c-28.943,60.112-68.831,101.56-112.314,116.704C1131.201,1672.875,1118.208,1675.112,1105.146,1675.112z M1064.004,1644.369
						c24.634,10.545,49.121,11.709,72.881,3.438c36.592-12.744,70.852-48.027,96.926-99.666
						c-22.893-29.946-44.668-46.638-64.778-49.639c-13.726-2.058-27.188,2.046-41.172,12.517
						C1080.385,1549.514,1060.42,1590.927,1064.004,1644.369z"/>
				</g>
				<g>
					<ellipse style="fill:#FFFFFF;" cx="1433.83" cy="1375.827" rx="36.602" ry="56.006"/>
				</g>
				<g style="opacity:0.35;">
					
						<ellipse transform="matrix(0.3013 -0.9535 0.9535 0.3013 -328.4445 2475.54)" style="fill:#FFFFFF;" cx="1524.912" cy="1461.877" rx="43.086" ry="28.159"/>
				</g>
				<g>
					<ellipse style="fill:#000072;" cx="946.318" cy="1400.567" rx="119.988" ry="146.4"/>
				</g>
				<g>
					<ellipse style="fill:#FFFFFF;" cx="992.65" cy="1375.827" rx="36.602" ry="56.006"/>
				</g>
				<g style="opacity:0.35;">
					
						<ellipse transform="matrix(0.9535 -0.3013 0.3013 0.9535 -398.5243 339.5267)" style="fill:#FFFFFF;" cx="901.567" cy="1461.877" rx="28.159" ry="43.086"/>
				</g>
				<g>
					<path style="fill:#DCF5FF;" d="M1946.725,2624.128c17.444,240.581,357.6,316.171,505.873,98.122
						C2387.183,2560.894,2068.832,2510.742,1946.725,2624.128z"/>
				</g>
				<g style="opacity:0.2;">
					<path style="fill:#000072;" d="M2427.564,2685.967c-144.269,176.939-427.864,122.029-481.39-72.335
						c8.158,248.838,356.016,329.806,506.424,108.617c-5.178-12.771-11.972-24.828-20.102-36.177
						C2431.307,2684.412,2428.854,2684.385,2427.564,2685.967z"/>
				</g>
				<g>
					<path style="fill:#000072;" d="M1951.43,2623.787c10.156,25.178,16.87,50.917,28.944,75.104
						c11.779,23.333,27.992,44.005,47.016,61.35c97.158,88.359,255.259,90.078,359.497,12.24
						c22.894-15.456,38.775-38.075,62.347-52.919c3.394-2.204,8.148,1.301,7.042,5.189c-3.51,14.552-10.796,27.402-20.099,38.861
						c-8.833,11.304-19.302,22.305-29.869,32.101c-132.525,128.938-382.734,93.162-453.027-84.67
						c-5.141-13.91-9.8-28.004-12.067-42.651c-1.942-14.654-2.01-29.429,0.807-43.923
						C1942.955,2619.592,1949.832,2619.113,1951.43,2623.787L1951.43,2623.787z"/>
				</g>
				<g>
					<path style="fill:#000072;" d="M2129.964,1871.073c195.323,139.259,462.956,186.382,689.597,103.547
						c55.305-21.348,106.314-52.62,146.292-96.136c12.313-14.442,24.738-30.155,34.125-46.686c0,0,14.752-27.063,14.752-27.063
						c5.71-9.944,13.313-19.104,21.296-27.363c11.963-13.034,21.127-29.127,26.268-46.049c5.195-16.836,6.391-34.802,1.71-49.989
						c-2.566-7.666-6.23-15.224-7.782-23.407c-2.421-19.551-10.408-37.843-24.915-51.516c-26.64-25.26-64.881-33.093-101.124-31.371
						c-189.939,2.05-409.793-27.051-571.237-133.132c-2.813-1.892-3.562-5.705-1.672-8.518c1.62-2.415,4.667-3.313,7.27-2.317
						c152.538,59.495,309.236,102.608,473.344,107.007c29.287,1.439,61.716,1.738,91.138,0.465
						c45.253-2.583,93.902,8.864,127.853,41.196c19.451,18.393,32.164,43.801,35.651,70.406c1.465,6.95,5.076,13.577,7.067,20.389
						c13.479,47.824-4.387,96.518-35.806,132.073c-2.701,3.131-7.029,7.336-9.433,10.586c-5.856,6.561-17.56,29.764-22.132,37.632
						c-91.35,150.784-282.195,200.253-448.349,198.72c-165.779-3.46-341.623-49.64-462.788-168.177
						C2115.753,1875.249,2122.696,1866.302,2129.964,1871.073L2129.964,1871.073z"/>
				</g>
				<g>
					<path style="fill:#000072;" d="M3095.048,1673.904c-41.77,107.041-264.604,111.072-361.342,98.785
						c-4.83-0.605-8.255-5.008-7.651-9.837c0.525-4.206,3.94-7.355,8.001-7.688c30.992-2.787,61.777-4.955,92.337-8.23
						c30.539-3.251,60.917-6.892,90.648-12.626c43.058-8.75,86.826-19.329,121.869-44.788c10.42-7.799,18.802-17.508,24.016-29.109
						C3072.799,1640.515,3102.3,1652.897,3095.048,1673.904L3095.048,1673.904z"/>
				</g>
				<g>
					<path style="fill:#000072;" d="M3056.656,1807.822c-116.45,86.402-271.976,110.651-412.051,80.542
						c-4.252-0.907-6.964-5.088-6.057-9.339c0.808-3.79,4.244-6.355,7.988-6.226c34.757,1.178,69.269,0.857,103.434-1.517
						c67.862-4.613,134.958-18.527,197.511-44.882c31.072-13.07,60.926-28.906,89.329-47.269
						C3055.74,1767.425,3074.341,1794.118,3056.656,1807.822L3056.656,1807.822z"/>
				</g>
				<g style="opacity:0.3;">
					<g>
						<path style="fill:#000072;" d="M2179.47,1904.088c0.393,3.75,0.872,7.457,1.483,11.12c-3.969-1.745-7.937-3.532-11.862-5.364
							c-3.314-1.526-6.672-3.096-9.987-4.666l3.14-0.175L2179.47,1904.088z"/>
					</g>
				</g>
				<g style="opacity:0.3;">
					<g>
						<path style="fill:#000072;" d="M2766.326,1893.272c-2.617,0.087-5.19,0.175-7.806,0.262
							C2761.224,1893.01,2763.841,1892.923,2766.326,1893.272z"/>
					</g>
				</g>
				<g style="opacity:0.3;">
					<g>
						<path style="fill:#000072;" d="M3046.693,1793.493c-8.068,8.286-14.697,17.88-19.799,28.259
							c-122.848,249.971-578.221,271.601-845.418,96.465c-4.187-2.704-8.33-5.495-12.385-8.373c-2.311-1.526-4.579-3.14-6.847-4.841
							c-5.713-4.056-11.295-8.199-16.79-12.516l5.931,1.832c115.348,52.506,239.243,86.173,365.275,99.299
							c49.148,5.102,99.823,6.977,146.965-7.85c22.502-7.108,44.874-18.927,57.26-38.987c12.385-20.104,11.077-49.89-7.806-64.019
							c37.287-4.143,76.099-8.809,107.542-29.349c31.399-20.54,52.506-62.1,37.417-96.465c31.181-8.809,62.755-17.793,90.403-34.67
							c27.648-16.877,51.328-42.868,58.001-74.573c6.673-31.661-7.501-68.642-37.112-81.768
							c20.017,4.361,40.775,9.158,60.705,15.656c18.491,12.778,32.315,29.96,39.336,50.674c2.006,5.626,3.402,11.513,4.273,17.662
							c0.872,6.105,2.704,11.993,5.146,17.662C3095.536,1706.361,3079.967,1759.39,3046.693,1793.493z"/>
					</g>
				</g>
				<g style="opacity:0.7;">
					<path style="fill:#FFFFFF;" d="M1073.985,1624.375c-0.186-48.409,35.915-92.126,71.831-107.389
						C1120.321,1552.055,1113.052,1595.665,1073.985,1624.375z"/>
				</g>
			</g>
			<g>
				<g>
					<path style="fill:#50468F;" d="M2010.526,2940.691c-7.152,8.33-6.847,20.802,0.523,28.957l45.354,50.325
						c20.453,22.677,24.203,56.649,7.283,82.03c-7.152,10.772-16.659,18.186-27.605,22.372c-7.501,2.878-15.699,4.187-24.334,4.012
						c-26.209-0.523-50.238-15.482-63.365-38.159c-12.472-21.456-29.393-43.174-50.718-65.197
						c-5.233-5.407-11.513-9.769-18.447-12.691c-141.383-59.483-275.745-97.424-357.076-155.294
						c-7.326-5.233-13.911-11.687-18.316-19.581c-15.22-27.256-4.928-59.745,23.68-72.523c5.887-2.617,12.516-4.405,19.886-5.146
						c7.196-0.785,15.045-0.523,23.549,0.959c-3.314-9.55-4.71-18.665-4.405-27.169c1.047-31.53,24.988-54.25,55.166-57.87
						c21.282-2.573,42.519,5.538,58.045,20.366l171.037,163.537c10.728,10.248,24.988,16.005,39.816,16.005h3.838
						c11.644,0,22.939-4.361,31.573-12.167l50.587-45.834l26.166-23.68l0.262-0.262l16.528-14.958
						c22.939,20.627,57.739,40.339,103.529,59.309c0.174,0.044,0.393,0.131,0.567,0.218c-2.355,1.788-4.666,3.532-6.978,5.321
						C2075.941,2874.84,2039.483,2906.98,2010.526,2940.691z"/>
				</g>
				<g style="opacity:0.6;">
					<g>
						<path style="fill:#FFFFFF;" d="M1609.655,2703.119c22.641-2.692,45.235,5.795,61.752,21.31l181.962,171.121
							c11.414,10.724,26.585,16.747,42.359,16.747h4.083c12.387,0,24.404-4.563,33.59-12.731l53.818-47.959l27.837-24.778
							l0.278-0.274c7.172-7.391,14.344-14.782,21.517-22.173c10.315,7.193,21.697,14.548,34.161,21.805
							c14.231,8.285,27.898,15.292,40.686,21.229c1.648-1.28,3.305-2.561,4.974-3.843c2.333-1.793,4.659-3.566,6.978-5.321
							c-0.174-0.087-0.393-0.174-0.567-0.218c-45.79-18.97-80.591-38.682-103.529-59.309l-16.528,14.958l-0.262,0.262l-26.166,23.68
							l-50.587,45.834c-8.635,7.806-19.93,12.167-31.573,12.167h-3.838c-14.827,0-29.088-5.757-39.816-16.005l-171.037-163.537
							c-15.525-14.827-36.763-22.939-58.045-20.366c-26.838,3.219-48.7,21.566-53.956,47.76
							C1578.343,2712.371,1593.099,2705.072,1609.655,2703.119z"/>
					</g>
				</g>
				<g>
					<path style="fill:#000072;" d="M2013.252,3145.854c-0.623,0-1.245-0.01-1.87-0.02c-31.797-0.64-61.726-18.594-78.108-46.851
						c-11.619-20.044-27.81-40.835-48.118-61.792c-3.672-3.789-8.062-6.821-12.7-8.77c-45.071-18.965-89.167-35.625-131.812-51.733
						c-92.043-34.775-171.536-64.81-228.601-105.425c-10.283-7.324-18.171-15.83-23.452-25.283
						c-13.352-23.906-12.156-52.139,3.123-73.687c12.815-18.076,33.442-28.623,57.593-30.151
						c-1.267-16.982,2.52-33.198,11.235-47.183c12.603-20.21,34.126-33.535,59.055-36.548c25.952-3.13,52.283,6.001,72.214,25.068
						l171.038,163.55c7.512,7.178,17.373,11.133,27.766,11.133h3.816c7.358,0,14.414-2.715,19.863-7.656l93.535-84.702
						c6.628-5.996,16.711-6.021,23.362-0.049c21.165,18.999,54.512,37.969,99.111,56.382c5.786,2.388,9.848,7.69,10.647,13.896
						c0.798,6.206-1.79,12.368-6.782,16.143c-47.226,35.708-83.34,68.374-110.403,99.873c-1.421,1.655-1.323,4.199,0.227,5.923
						l45.383,50.337c26.313,29.185,29.941,71.694,8.818,103.384C2063.476,3133.769,2040.466,3145.854,2013.252,3145.854z
						 M1555.219,2776.806c-15.381,0-27.8,5.449-35.046,15.669c-7.534,10.62-7.954,24.268-1.123,36.494
						c2.742,4.907,7.19,9.575,13.225,13.872c53.386,37.998,130.921,67.29,220.698,101.211
						c42.942,16.221,87.344,32.998,133.005,52.207c9.065,3.809,17.219,9.414,24.236,16.66c22.28,22.988,40.198,46.06,53.242,68.564
						c10.308,17.783,28.94,29.072,48.628,29.468c16.064,0.391,28.628-5.938,37.08-18.613c12.263-18.394,9.919-43.345-5.701-60.669
						l-45.383-50.337c-13.271-14.717-13.608-37.08-0.779-52.017c23.987-27.915,54.382-56.479,92.456-86.836
						c-28.481-13.232-51.528-26.685-69.71-40.674l-82.334,74.561c-11.875,10.762-27.249,16.689-43.284,16.689h-3.816
						c-19.414,0-37.839-7.393-51.875-20.806l-171.04-163.555c-12.363-11.821-28.376-17.52-43.921-15.645
						c-14.387,1.738-26.646,9.16-33.63,20.366c-7.231,11.602-8.174,25.986-2.725,41.606c2.036,5.84,0.83,12.319-3.169,17.031
						c-4.001,4.717-10.215,6.948-16.289,5.903C1563.537,2777.187,1559.275,2776.806,1555.219,2776.806z"/>
				</g>
				<g>
					<path style="fill:#000072;" d="M1584.589,2749.891c19.561,26.521,46.142,49.707,72.348,70.503
						c27.213,21.385,56.21,40.856,86.112,58.921c7.855,4.782,1.475,16.852-6.941,12.942
						c-64.436-31.945-128.901-67.165-178.79-120.604C1541.861,2752.924,1569.679,2730.611,1584.589,2749.891L1584.589,2749.891z"/>
				</g>
				<g style="opacity:0.4;">
					<g>
						<path style="fill:#000072;" d="M2010.526,2940.691c-7.152,8.33-6.847,20.802,0.523,28.957l45.354,50.325
							c20.453,22.677,24.203,56.649,7.283,82.03c-7.152,10.772-16.659,18.186-27.605,22.372
							c-25.512-1.265-48.712-17.008-61.533-40.557c-12.472-22.808-29.393-45.921-50.718-69.339
							c-5.233-5.757-11.513-10.379-18.447-13.476c-141.383-63.278-275.745-103.617-357.077-165.15
							c-7.326-5.582-13.911-12.428-18.316-20.845c-8.678-16.528-9.071-34.844-2.486-50.064c5.887-2.617,12.516-4.405,19.886-5.146
							c7.196-0.785,15.045-0.523,23.549,0.959c-3.314-9.55-4.71-18.665-4.405-27.169c2.268-0.48,4.579-0.872,7.021-1.134
							c20.976,8.155,40.383,25.425,57.827,41.299c64.368,58.437,136.019,107.76,212.466,146.354
							c21.369,10.815,44.133,20.976,67.77,19.712c22.59-1.221,43.784-12.865,61.01-28.434c17.27-15.525,31.094-34.801,44.787-53.902
							c7.239-10.117,14.784-21.151,15.264-33.841c0.436-12.691-9.987-26.471-21.631-23.637l-8.286-6.062l0.262-0.262l16.528-14.958
							c22.939,20.627,57.739,40.339,103.529,59.309c-2.137,1.832-4.274,3.707-6.411,5.539
							C2075.941,2874.84,2039.483,2906.98,2010.526,2940.691z"/>
					</g>
				</g>
			</g>
		</g>
		<g>
			<g>
				<path style="fill:#FFFFFF;" d="M2392.165,1012.45c-22.733-37.195-33.942-81.844-29.146-128.554
					c11.641-113.376,112.987-195.848,226.363-184.208c113.376,11.641,195.848,112.987,184.208,226.363
					c-11.641,113.376-112.987,195.848-226.363,184.208c-31.535-3.238-60.667-13.434-86.061-28.881l-95.499,21.417L2392.165,1012.45z
					"/>
			</g>
			<g style="opacity:0.5;">
				<g>
					<path style="fill:#FFFFFF;" d="M2585.327,739.17c-105.909-10.874-201.296,60.386-222.894,162.236
						c-0.026-7.275,0.288-14.615,1.048-22.015c11.641-113.376,112.986-195.848,226.362-184.208
						c113.376,11.641,195.848,112.987,184.208,226.362c-0.763,7.432-1.933,14.723-3.446,21.872
						C2770.207,839.259,2691.271,750.047,2585.327,739.17z"/>
				</g>
			</g>
			<g>
				<path style="fill:#000072;" d="M2568.723,1129.514c-7.749,0-15.537-0.396-23.35-1.199
					c-31.013-3.184-60.315-12.483-87.212-27.663l-88.523,19.856c-6.267,1.409-12.82-0.61-17.214-5.3
					c-4.397-4.688-5.984-11.353-4.175-17.522l24.29-82.815c-22.835-40.522-32.358-86.267-27.576-132.83
					c6.125-59.656,35.115-113.357,81.631-151.208c46.511-37.854,104.997-55.332,164.641-49.202
					c59.656,6.125,113.357,35.115,151.208,81.631c37.854,46.516,55.327,104.985,49.202,164.641
					c-6.125,59.658-35.115,113.359-81.631,151.211C2669.594,1112.009,2620.136,1129.514,2568.723,1129.514z M2461.164,1063.224
					c3.301,0,6.567,0.901,9.434,2.644c23.987,14.59,50.39,23.45,78.481,26.333c103.25,10.596,195.852-64.768,206.453-168.005
					c5.134-50.01-9.514-99.028-41.245-138.02c-31.731-38.994-76.748-63.298-126.758-68.433
					c-50.029-5.132-99.028,9.512-138.022,41.245c-38.994,31.733-63.296,76.75-68.43,126.76
					c-4.243,41.311,4.946,81.848,26.577,117.236c2.668,4.368,3.371,9.661,1.929,14.575l-17.827,60.781l65.437-14.678
					C2458.506,1063.371,2459.838,1063.224,2461.164,1063.224z"/>
			</g>
			<g style="opacity:0.3;">
				<path style="fill:#000072;" d="M2391.007,1010.468c56.524,47.81,134.393,68.747,211.721,49.501
					c85.757-21.344,148.943-86.647,171.67-165.903c0.543,10.509,0.299,21.191-0.809,31.984
					c-11.641,113.376-112.987,195.848-226.363,184.207c-31.535-3.238-60.667-13.434-86.061-28.881l-95.5,21.417l26.499-90.345
					C2391.766,1011.797,2391.398,1011.125,2391.007,1010.468z"/>
			</g>
			<g>
				<path style="fill:#FF0068;" d="M2502.316,847.024L2502.316,847.024c17.859-17.859,46.814-14.659,64.674,3.2l2.78,2.78l2.78-2.78
					c17.859-17.859,46.814-21.059,64.674-3.2l0,0c17.859,17.859,17.859,46.814,0,64.674l-2.78,2.78l-56.149,56.149
					c-4.708,4.708-12.342,4.708-17.05,0l-56.149-56.149l-2.78-2.78C2484.457,893.839,2484.457,864.883,2502.316,847.024z"/>
			</g>
		</g>
		<g style="opacity:0.2;">
			<ellipse style="fill:#000072;" cx="2125.525" cy="3361.773" rx="865.398" ry="74.137"/>
		</g>
	</g>
</g>
</svg>
